# xmcd
#
# Track frame offsets:
#	150
#	20790
#	48005
#	68510
#
# Disc length: 1259 seconds
# Revision: 0
# Processed by: cddbd v1.5.2PL0 Copyright (c) Steve Scherf et al.
# Submitted via: dBpowerAMP V12.0
#
DISCID=2904e904
DTITLE=2 Quick Start - Nii kuum on tunne
DYEAR=1996
DGENRE=Eurodance
TTITLE0=Nii kuum on tunne
TTITLE1=Nii kuum on tunne (Extended)
TTITLE2=Nii kuum on tunne (Original Pineapple)
TTITLE3=Nii kuum on tunne (Club)
EXTD=
EXTT0=
EXTT1=
EXTT2=
EXTT3=
PLAYORDER=
